Coordinates
version=1
nRows=12
nColumns=46
inDegrees=yes

Units are S.I. units (second, meters, Newtons, ...)
Angles are in degrees.

endheader
time	pelvis_tilt	pelvis_list	pelvis_rotation	pelvis_tx	pelvis_ty	pelvis_tz	bb_angle	bb_tx	bb_ty	bb_tz	hip_flexion_r	hip_adduction_r	hip_rotation_r	knee_angle_r	knee_angle_r_beta	ankle_angle_r	subtalar_angle_r	mtp_angle_r	crank_angle_r	hip_flexion_l	hip_adduction_l	hip_rotation_l	knee_angle_l	knee_angle_l_beta	ankle_angle_l	subtalar_angle_l	mtp_angle_l	crank_angle_l	lumbar_extension	lumbar_bending	lumbar_rotation	arm_flex_r	arm_add_r	arm_rot_r	elbow_flex_r	pro_sup_r	wrist_flex_r	wrist_dev_r	arm_flex_l	arm_add_l	arm_rot_l	elbow_flex_l	pro_sup_l	wrist_flex_l	wrist_dev_l
      0.00000000	    -17.18558407	     -6.94045279	     -0.36407757	      0.12099073	      1.13517596	     -0.24497628	      0.00000000	      0.50000000	      0.00000000	      0.25000000	     90.58631427	    -11.23965719	     -7.35089519	    102.76689956	      1.79362076	     27.03846467	      5.61270340	      0.00000000	      0.00000000	     49.84668259	    -14.47531768	     -4.55771649	     55.19989667	      0.96341994	      9.61855512	      5.77353732	      0.00000000	      0.00000000	    -53.58207465	      5.36787516	      6.87729801	     89.39491102	     -8.51086958	     27.88729608	     37.56427924	     26.40663673	      0.00000000	      0.00000000	     89.51775210	     -3.01223550	     30.43601580	     32.27453409	     24.40708317	      0.00000000	      0.00000000
      0.00500000	    -17.18836710	     -6.92032977	     -0.33581279	      0.12107561	      1.13516480	     -0.24496125	      0.00000000	      0.50000000	      0.00000000	      0.25000000	     90.58640400	    -11.25536601	     -7.32755546	    102.76590015	      1.79360332	     27.06738701	      5.58339285	      0.00000000	      0.00000000	     49.84450823	    -14.41358502	     -4.51992004	     55.19916186	      0.96340712	      9.60866086	      5.67696836	      0.00000000	      0.00000000	    -53.56612601	      5.37449089	      6.84357880	     89.38097178	     -8.28382366	     26.85724154	     36.95988217	     29.29899041	      0.00000000	      0.00000000	     89.51954949	     -2.64595561	     29.02879191	     31.50279353	     27.68525518	      0.00000000	      0.00000000
      0.01000000	    -17.16333985	     -6.91282820	     -0.33857007	      0.12118443	      1.13517688	     -0.24488378	      0.00000000	      0.50000000	      0.00000000	      0.25000000	     90.55211550	    -11.23699071	     -7.32271775	    102.76001415	      1.79350059	     27.08099625	      5.57313915	      0.00000000	      0.00000000	     49.82303530	    -14.42441068	     -4.53195695	     55.22963508	      0.96393898	      9.62452085	      5.68087279	      0.00000000	      0.00000000	    -53.58600919	      5.35619983	      6.83932566	     89.36955828	     -8.26439542	     26.32795765	     36.56878869	     31.52723405	      0.00000000	      0.00000000	     89.52178338	     -2.52058414	     28.40356940	     31.05805771	     29.99587387	      0.00000000	      0.00000000
      0.01500000	    -17.33536546	     -7.10867033	     -0.36949866	      0.12102180	      1.13457659	     -0.24434956	      0.00000000	      0.50000000	      0.00000000	      0.25000000	     90.72471384	    -11.09813442	     -7.50369349	    102.75885915	      1.79348043	     27.06194797	      5.52318167	      0.00000000	      0.00000000	     50.05348908	    -14.42019213	     -4.10581935	     55.22952926	      0.96393713	      9.73083026	      5.82991021	      0.00000000	      0.00000000	    -53.43836494	      5.46878168	      6.98995633	     89.35717530	     -8.36169693	     26.34675476	     36.73627030	     31.95233873	      0.00000000	      0.00000000	     89.50700121	     -2.70108879	     28.58479449	     31.26179418	     30.39883665	      0.00000000	      0.00000000
      0.02000000	    -17.35164612	     -7.16214471	     -0.41086713	      0.12108236	      1.13461041	     -0.24439049	      0.00000000	      0.50000000	      0.00000000	      0.25000000	     90.71779242	    -10.98073563	     -7.52081291	    102.74725066	      1.79327782	     27.11325108	      5.54178518	      0.00000000	      0.00000000	     50.18831062	    -14.69712989	     -4.25277464	     55.46889823	      0.96811491	      9.87197041	      5.98097778	      0.00000000	      0.00000000	    -53.39527259	      5.44958043	      7.13506610	     89.30880346	     -8.45516616	     26.04955123	     36.85415742	     32.03017699	      0.00000000	      0.00000000	     89.51276261	     -2.79453062	     28.33280511	     31.40730337	     30.46918021	      0.00000000	      0.00000000
      0.02500000	    -17.33678206	     -6.98086100	     -0.31894283	      0.12116830	      1.13465711	     -0.24448114	      0.00000000	      0.50000000	      0.00000000	      0.25000000	     90.75863328	    -11.10162664	     -7.34327444	    102.78753303	      1.79398088	     27.06918703	      5.25525657	      0.00000000	      0.00000000	     50.09208672	    -14.40680764	     -4.24262445	     55.37871519	      0.96654092	      9.75571895	      5.33600643	      0.00000000	      0.00000000	    -53.35261062	      5.38914942	      6.74981756	     89.36082867	     -8.44467922	     26.80333012	     35.93602845	     34.18810638	      0.00000000	      0.00000000	     89.51076985	     -3.43610397	     29.91791130	     31.10457901	     32.61660563	      0.00000000	      0.00000000
      0.03000000	    -17.31965256	     -6.96118152	     -0.30178679	      0.12125485	      1.13466087	     -0.24445941	      0.00000000	      0.50000000	      0.00000000	      0.25000000	     90.74411179	    -11.10941898	     -7.32342168	    102.79184385	      1.79405612	     27.06881406	      5.24867245	      0.00000000	      0.00000000	     50.08091602	    -14.39366840	     -4.25481327	     55.39968255	      0.96690687	      9.71493266	      5.31732276	      0.00000000	      0.00000000	    -53.35786158	      5.34193531	      6.84131519	     89.33147047	     -8.60718382	     26.43714319	     36.07408927	     34.19079220	      0.00000000	      0.00000000	     89.51907394	     -3.15399448	     30.05550184	     30.79270576	     32.44795429	      0.00000000	      0.00000000
      0.03500000	    -17.29200781	     -6.98695019	     -0.27507089	      0.12133042	      1.13462361	     -0.24442430	      0.00000000	      0.50000000	      0.00000000	      0.25000000	     90.70869044	    -11.11936021	     -7.35200944	    102.80911292	      1.79435752	     27.06247018	      5.22137837	      0.00000000	      0.00000000	     50.07588458	    -14.40627234	     -4.22537850	     55.42898371	      0.96741827	      9.77724578	      5.32819171	      0.00000000	      0.00000000	    -53.38440447	      5.40300226	      6.85767028	     89.32878578	     -8.79165541	     27.14622051	     36.69449773	     31.30336655	      0.00000000	      0.00000000	     89.52262410	     -3.60513898	     31.86565586	     31.72381414	     27.99003073	      0.00000000	      0.00000000
      0.04000000	    -17.25142330	     -6.94811414	     -0.25556216	      0.12143703	      1.13462558	     -0.24438571	      0.00000000	      0.50000000	      0.00000000	      0.25000000	     90.67746708	    -11.13022996	     -7.29617752	    102.84055345	      1.79490626	     27.17168717	      5.32110350	      0.00000000	      0.00000000	     50.03191839	    -14.37171212	     -4.23322672	     55.44829254	      0.96775527	      9.77902511	      5.41815830	      0.00000000	      0.00000000	    -53.43365678	      5.36100900	      6.83449756	     89.31369524	     -8.71361546	     26.43077914	     36.59410912	     32.06925232	      0.00000000	      0.00000000	     89.52304408	     -3.30404401	     30.87051363	     31.45763236	     28.91107318	      0.00000000	      0.00000000
      0.04500000	    -17.16147684	     -6.99620987	     -0.20104699	      0.12161202	      1.13481487	     -0.24439783	      0.00000000	      0.50000000	      0.00000000	      0.25000000	     90.53824034	    -11.20426313	     -7.38808465	    102.85568846	      1.79517042	     27.25257065	      5.54560914	      0.00000000	      0.00000000	     49.92699772	    -14.41742713	     -4.23144020	     55.41868898	      0.96723859	      9.89544520	      5.71453787	      0.00000000	      0.00000000	    -53.60385020	      5.43533600	      6.89570068	     89.28829514	     -8.70651861	     25.78834924	     36.97092216	     32.65636542	      0.00000000	      0.00000000	     89.50436128	     -3.21873143	     30.12539754	     31.82361699	     29.64818226	      0.00000000	      0.00000000
      0.05000000	    -17.31344869	     -6.89996165	     -0.21733760	      0.12164754	      1.13444595	     -0.24430267	      0.00000000	      0.50000000	      0.00000000	      0.25000000	     90.77086417	    -11.17598035	     -7.26371256	    102.88277481	      1.79564316	     27.10054356	      5.24503575	      0.00000000	      0.00000000	     50.07806098	    -14.29387433	     -4.22708422	     55.43287048	      0.96748610	      9.79854606	      5.36846383	      0.00000000	      0.00000000	    -53.35195833	      5.38989459	      6.78638988	     89.30980935	     -8.90857788	     27.09955132	     36.71617911	     31.66371838	      0.00000000	      0.00000000	     89.51973220	     -3.52606469	     31.83229696	     31.62915435	     28.17247838	      0.00000000	      0.00000000
      0.05500000	    -17.15517295	     -6.90532026	     -0.19800025	      0.12183748	      1.13475487	     -0.24424280	      0.00000000	      0.50000000	      0.00000000	      0.25000000	     90.58605518	    -11.16405329	     -7.27257948	    102.91360025	      1.79618117	     27.13217268	      5.16345237	      0.00000000	      0.00000000	     49.86361268	    -14.31690163	     -4.26626435	     55.36866593	      0.96636552	      9.82959352	      5.37578232	      0.00000000	      0.00000000	    -53.54771138	      5.35246276	      6.84519964	     89.28999181	     -8.69423055	     25.76544193	     36.66998553	     32.05377801	      0.00000000	      0.00000000	     89.52600017	     -2.91620092	     30.02400769	     31.28831077	     29.21190426	      0.00000000	      0.00000000
